ModelForces
version=1
nRows=4
nColumns=155
inDegrees=no

This file contains the forces exerted on a model during a simulation.

A force is a generalized force, meaning that it can be either a force (N) or a torque (Nm).

Units are S.I. units (second, meters, Newtons, ...)
Angles are in degrees.

endheader
time	glut_med1_r	glut_med2_r	glut_med3_r	glut_min1_r	glut_min2_r	glut_min3_r	semimem_r	semiten_r	bifemlh_r	bifemsh_r	sar_r	add_long_r	add_brev_r	add_mag1_r	add_mag2_r	add_mag3_r	tfl_r	pect_r	grac_r	glut_max1_r	glut_max2_r	glut_max3_r	iliacus_r	psoas_r	quad_fem_r	gem_r	peri_r	rect_fem_r	vas_med_r	vas_int_r	vas_lat_r	med_gas_r	lat_gas_r	soleus_r	tib_post_r	flex_dig_r	flex_hal_r	tib_ant_r	per_brev_r	per_long_r	per_tert_r	ext_dig_r	ext_hal_r	glut_med1_l	glut_med2_l	glut_med3_l	glut_min1_l	glut_min2_l	glut_min3_l	semimem_l	semiten_l	bifemlh_l	bifemsh_l	sar_l	add_long_l	add_brev_l	add_mag1_l	add_mag2_l	add_mag3_l	tfl_l	pect_l	grac_l	glut_max1_l	glut_max2_l	glut_max3_l	iliacus_l	psoas_l	quad_fem_l	gem_l	peri_l	rect_fem_l	vas_med_l	vas_int_l	vas_lat_l	med_gas_l	lat_gas_l	soleus_l	tib_post_l	flex_dig_l	flex_hal_l	tib_ant_l	per_brev_l	per_long_l	per_tert_l	ext_dig_l	ext_hal_l	ercspn_r	ercspn_l	intobl_r	intobl_l	extobl_r	extobl_l	femur_lat_meniscii_r.femur_lat_r.force.X	femur_lat_meniscii_r.femur_lat_r.force.Y	femur_lat_meniscii_r.femur_lat_r.force.Z	femur_lat_meniscii_r.femur_lat_r.torque.X	femur_lat_meniscii_r.femur_lat_r.torque.Y	femur_lat_meniscii_r.femur_lat_r.torque.Z	femur_lat_meniscii_r.meniscus_lat_r.force.X	femur_lat_meniscii_r.meniscus_lat_r.force.Y	femur_lat_meniscii_r.meniscus_lat_r.force.Z	femur_lat_meniscii_r.meniscus_lat_r.torque.X	femur_lat_meniscii_r.meniscus_lat_r.torque.Y	femur_lat_meniscii_r.meniscus_lat_r.torque.Z	femur_med_meniscii_r.femur_med_r.force.X	femur_med_meniscii_r.femur_med_r.force.Y	femur_med_meniscii_r.femur_med_r.force.Z	femur_med_meniscii_r.femur_med_r.torque.X	femur_med_meniscii_r.femur_med_r.torque.Y	femur_med_meniscii_r.femur_med_r.torque.Z	femur_med_meniscii_r.meniscus_med_r.force.X	femur_med_meniscii_r.meniscus_med_r.force.Y	femur_med_meniscii_r.meniscus_med_r.force.Z	femur_med_meniscii_r.meniscus_med_r.torque.X	femur_med_meniscii_r.meniscus_med_r.torque.Y	femur_med_meniscii_r.meniscus_med_r.torque.Z	femur_med_tibia_r.tibia_upper_r.force.X	femur_med_tibia_r.tibia_upper_r.force.Y	femur_med_tibia_r.tibia_upper_r.force.Z	femur_med_tibia_r.tibia_upper_r.torque.X	femur_med_tibia_r.tibia_upper_r.torque.Y	femur_med_tibia_r.tibia_upper_r.torque.Z	femur_med_tibia_r.femur_med_r.force.X	femur_med_tibia_r.femur_med_r.force.Y	femur_med_tibia_r.femur_med_r.force.Z	femur_med_tibia_r.femur_med_r.torque.X	femur_med_tibia_r.femur_med_r.torque.Y	femur_med_tibia_r.femur_med_r.torque.Z	femur_lat_tibia_r.tibia_upper_r.force.X	femur_lat_tibia_r.tibia_upper_r.force.Y	femur_lat_tibia_r.tibia_upper_r.force.Z	femur_lat_tibia_r.tibia_upper_r.torque.X	femur_lat_tibia_r.tibia_upper_r.torque.Y	femur_lat_tibia_r.tibia_upper_r.torque.Z	femur_lat_tibia_r.femur_lat_r.force.X	femur_lat_tibia_r.femur_lat_r.force.Y	femur_lat_tibia_r.femur_lat_r.force.Z	femur_lat_tibia_r.femur_lat_r.torque.X	femur_lat_tibia_r.femur_lat_r.torque.Y	femur_lat_tibia_r.femur_lat_r.torque.Z	aACL_R	pACL_R	aPCL_R	pPCL_R	aMCL_R	mMCL_R	pMCL_R	aLCL_R	mLCL_R	pLCL_R	aPCL_L	pPCL_L	aMCL_L	aLCL_L
      0.16280631	     11.51502780	      8.40758246	      9.04356097	      3.88072317	      4.50895854	      4.88605379	      0.00000000	    166.10216779	    138.68473744	    295.79581744	    130.49988074	      8.36838935	      6.02279674	      2.74190087	      3.66672926	      6.18410334	      5.01724159	      3.27581260	     99.98994799	      5.42881447	      8.25874998	      6.20703828	     27.66133618	     18.65939184	      5.33723131	      3.67482713	      6.26018243	     52.49466577	     31.19100129	     33.33615904	     45.02722721	      0.00000000	      0.00000000	      0.00000000	      0.00000000	      0.00000000	      0.00000000	     33.63696249	      2.44543075	      2.97725824	     17.89325516	     41.16028893	     10.54894564	     11.51502780	      8.40758246	      9.04356097	      3.88072317	      4.50895854	      4.88605379	      0.00000000	      6.23331317	     12.30343287	     10.62315846	      2.21417747	      8.36838935	      6.02279674	      2.74190087	      3.66672926	      6.18410334	      5.45567774	      3.27581260	      2.28602362	      5.42881447	      8.25874998	      6.20703828	     27.66133618	     18.65939184	      5.33723131	      3.67482713	      6.26018243	     17.15210769	      0.00000000	      0.00000000	      0.00000000	     21.20951820	     10.02677622	     51.12608276	     51.15339470	      5.48702390	      4.90989853	     13.34043402	      7.13955618	     18.29203909	      2.88493542	      8.90756441	      2.79728674	     36.52862090	     36.52862090	     13.58044527	     13.58044527	     30.93448740	     30.93448740	    100.88858890	    188.70857856	     21.52548130	    -13.22419543	      2.44308062	     39.40128231	   -100.88858890	   -188.70857856	    -21.52548130	      5.19836520	     -3.03025050	      3.36285702	     24.12574214	     23.09231983	     12.74033208	     -4.61141015	     -0.55276877	      9.68714282	    -24.12574214	    -23.09231983	    -12.74033208	     -0.27176184	      0.25862374	      0.09302919	   -735.50205995	   -695.49259320	    219.19857239	    -16.10330960	     16.63716638	     -1.22810065	    735.50205995	    695.49259320	   -219.19857239	    101.75802822	    -13.30236467	    299.21613573	      0.00000000	      0.00000000	      0.00000000	      0.00000000	      0.00000000	      0.00000000	      0.00000000	      0.00000000	      0.00000000	      0.00000000	      0.00000000	      0.00000000	     -2.83820009	      0.00000000	    560.65447331	    366.66147393	      0.00000000	      0.00000000	      0.00000000	      0.00000000	      0.00000000	      0.00000000	      0.00000000	      0.00000000	      0.00000001	      0.00000000
      0.16304672	     11.50327202	      8.39889541	      9.03410525	      3.87687735	      4.50474945	      4.88068001	      0.00000000	    166.16014802	    138.72028018	    295.83647159	    130.50927420	      8.35964359	      6.01688363	      2.87547994	      3.66287237	      6.17711523	      5.00974593	      3.27254302	     99.99499768	      5.42318233	      8.25016281	      6.20048496	     27.64532149	     18.64112751	      5.33182711	      3.67218505	      6.25779397	     52.69172655	     31.18527647	     33.33094826	     45.01812494	      0.00000000	      0.00000000	      0.00000000	      0.00000000	      0.00000000	      0.00000000	     33.67594696	      2.43701691	      2.97681735	     21.28220365	     41.32116839	     10.58680587	     11.50327202	      8.39889541	      9.03410525	      3.87687735	      4.50474945	      4.88068001	      0.00000000	      6.22646762	     12.29032058	     10.61238948	      2.21199344	      8.35964359	      6.01688363	      2.87547994	      3.66287237	      6.17711523	      5.45137367	      3.27254302	      2.28372913	      5.42318233	      8.25016281	      6.20048496	     27.64532149	     18.64112751	      5.33182711	      3.67218505	      6.25779397	     17.13195401	      0.00000000	      0.00000000	      0.00000000	     21.20420716	     10.02340500	     51.07870092	     51.12795740	      5.48172879	      4.90514584	     13.32568724	      7.13119224	     18.27651558	      2.88212202	      8.89632878	      2.79387921	     36.49233961	     36.49233961	     13.56587657	     13.56587657	     30.92127439	     30.92127439	    100.85843463	    188.02807701	     22.07726801	    -13.43907674	      2.44700864	     39.38707903	   -100.85843463	   -188.02807701	    -22.07726801	      5.19905764	     -3.04661716	      3.36362110	     24.31867608	     23.07006510	     12.64401137	     -4.57221663	     -0.55648256	      9.76293711	    -24.31867608	    -23.07006510	    -12.64401137	     -0.27417797	      0.26335308	      0.09314519	   -737.65778849	   -694.88969174	    219.81846128	    -16.08639206	     16.69035155	     -1.20334395	    737.65778849	    694.88969174	   -219.81846128	    101.98938169	    -13.33869417	    300.06833070	      0.00000000	      0.00000000	      0.00000000	      0.00000000	      0.00000000	      0.00000000	      0.00000000	      0.00000000	      0.00000000	      0.00000000	      0.00000000	      0.00000000	     -2.81607581	      0.00000000	    563.13170076	    367.80034333	      0.00000000	      0.00000000	      0.00000000	      0.00000000	      0.00000000	      0.00000000	      0.00000000	      0.00000000	      0.00000001	      0.00000000
      0.16375017	     11.46898991	      8.37363787	      9.00661326	      3.86569494	      4.49251147	      4.86505421	      0.00000000	    166.30696186	    138.84639446	    296.00442294	    130.51487273	      8.33421581	      5.99968991	      3.19032820	      3.65165849	      6.15679707	      4.98691343	      3.26303629	     99.99076773	      5.40680743	      8.22519645	      6.18143199	     27.59876325	     18.58802977	      5.31611399	      3.66450436	      6.25066414	     53.25304971	     31.08813075	     33.26785795	     44.95846608	      0.00000000	      0.00000000	      0.00000000	      0.00000000	      0.00000000	      0.00000000	     33.78854616	      2.41164647	      2.97465297	     20.91637839	     41.72102386	     10.66958179	     11.46898991	      8.37363787	      9.00661326	      3.86569494	      4.49251147	      4.86505421	      0.00000000	      6.20656486	     12.25208982	     10.58107810	      2.20564295	      8.33421581	      5.99968991	      3.19032820	      3.65165849	      6.15679707	      5.43885814	      3.26303629	      2.27705764	      5.40680743	      8.22519645	      6.18143199	     27.59876325	     18.58802977	      5.31611399	      3.66450436	      6.25066414	     17.07333527	      0.00000000	      0.00000000	      0.00000000	     21.18824533	     10.01335591	     50.94011500	     51.05386702	      5.46614169	      4.89110523	     13.28274758	      7.10684680	     18.23124448	      2.87394280	      8.86404777	      2.78413165	     36.38684585	     36.38684585	     13.52351943	     13.52351943	     30.88286219	     30.88286219	    102.11304305	    189.32787149	     23.04565842	    -13.87516713	      2.47977980	     39.86384879	   -102.11304305	   -189.32787149	    -23.04565842	      5.26265570	     -3.10490312	      3.43294059	     24.34795323	     22.59451675	     12.31135604	     -4.44974450	     -0.55294618	      9.76849651	    -24.34795323	    -22.59451675	    -12.31135604	     -0.27000679	      0.26467974	      0.09471629	   -746.05445548	   -691.66970751	    220.76774430	    -16.00093565	     16.85990467	     -1.23858518	    746.05445548	    691.66970751	   -220.76774430	    102.29478810	    -13.47959965	    303.44744226	      0.00000000	      0.00000000	      0.00000000	      0.00000000	      0.00000000	      0.00000000	      0.00000000	      0.00000000	      0.00000000	      0.00000000	      0.00000000	      0.00000000	     -2.73683267	      0.00000000	    570.31155548	    371.10865401	      0.00000000	      0.00000000	      0.00000000	      0.00000000	      0.00000000	      0.00000000	      0.00000000	      0.00000000	      0.00000001	      0.00000000
      0.16390452	     11.46149107	      8.36812763	      9.00061563	      3.86325522	      4.48984158	      4.86164495	      0.00000000	    166.33390806	    138.87918988	    296.05179091	    130.51146134	      8.32866852	      5.99593862	      3.24713370	      3.64921205	      6.15236436	      4.98172654	      3.26096219	     99.98563830	      5.40323515	      8.21974989	      6.17727550	     27.58860687	     18.57644697	      5.31268590	      3.66282895	      6.24907192	     53.39625747	     31.13913464	     33.29550672	     44.97382869	      0.00000000	      0.00000000	      0.00000000	      0.00000000	      0.00000000	      0.00000000	     33.81395499	      2.40586755	      2.97394622	     21.96645761	     41.87588038	     10.71406851	     11.46149107	      8.36812763	      9.00061563	      3.86325522	      4.48984158	      4.86164495	      0.00000000	      6.20222296	     12.24372839	     10.57424701	      2.20425743	      8.32866852	      5.99593862	      3.24713370	      3.64921205	      6.15236436	      5.43612744	      3.26096219	      2.27560212	      5.40323515	      8.21974989	      6.17727550	     27.58860687	     18.57644697	      5.31268590	      3.66282895	      6.24907192	     17.06054255	      0.00000000	      0.00000000	      0.00000000	     21.18465956	     10.01111441	     50.90971864	     51.03767745	      5.46270236	      4.88799707	     13.27336738	      7.10153017	     18.22134116	      2.87215855	      8.85708235	      2.78203690	     36.36382986	     36.36382986	     13.51427895	     13.51427895	     30.87448299	     30.87448299	    102.18583148	    189.34545399	     23.01934385	    -13.86672170	      2.47977623	     39.88722935	   -102.18583148	   -189.34545399	    -23.01934385	      5.26426472	     -3.10534541	      3.44579984	     24.46136082	     22.55113839	     12.23946393	     -4.42196316	     -0.55490254	      9.81281698	    -24.46136082	    -22.55113839	    -12.23946393	     -0.27032566	      0.26753033	      0.09450746	   -747.58953751	   -690.51928153	    221.63205117	    -15.99618878	     16.91227383	     -1.25034727	    747.58953751	    690.51928153	   -221.63205117	    102.62852815	    -13.51181289	    304.06536888	      0.00000000	      0.00000000	      0.00000000	      0.00000000	      0.00000000	      0.00000000	      0.00000000	      0.00000000	      0.00000000	      0.00000000	      0.00000000	      0.00000000	     -2.71807053	      0.00000000	    571.86458134	    371.80591761	      0.00000000	      0.00000000	      0.00000000	      0.00000000	      0.00000000	      0.00000000	      0.00000000	      0.00000000	      0.00000001	      0.00000000
